<svg xmlns="http://www.w3.org/2000/svg" width="640" height="640" viewBox="0 0 6400 3640">
<g transform="rotate(45 3200 1820)">
   <g id="l5wqszqVWKXrG6eZZlp3lJW" fill="#D3D3D3" style="transform: none;">
      <g style="transform: none;">
         <path id="pSA5MeXXK" d="M861 3204 c-30 -8 -77 -27 -105 -41 -70 -37 -374 -337 -412 -406 l-29 -52 -3 -862 c-2 -859 -2 -861 19 -920 19 -52 40 -76 188 -224 135 -134 179 -172 237 -202 132 -68 113 -67 1117 -67 989 0 976 0 1106 60 60 28 102 67 472 438 315 315 412 418 430 457 24 50 24 50 24 425 0 448 1 442 -93 542 -35 37 -70 68 -76 68 -6 0 -107 -96 -224 -213 l-212 -212 0 -140 0 -141 -342 -342 -343 -342 -755 0 -755 0 -97 98 -97 97 0 605 0 605 102 103 102 102 749 0 750 0 228 227 c130 129 227 234 226 243 -4 21 -111 76 -185 94 -90 23 -1938 23 -2022 0z"/>
      </g>
   </g>
   <g id="l3dK0I3qHJnZsBt1MpvzSRJ" fill="#967BB6" style="transform: none;">
      <g style="transform: none;">
         <path id="pezkMZitp" d="M3464 3201 c-34 -10 -83 -30 -110 -45 -59 -34 -824 -791 -859 -851 -40 -68 -47 -144 -43 -506 4 -392 3 -390 114 -500 l65 -64 214 216 215 217 0 143 0 144 342 342 343 343 750 0 750 0 103 -103 102 -102 0 -610 0 -610 -93 -93 -92 -92 -755 0 -755 0 -237 -237 -237 -237 49 -33 c68 -46 133 -69 226 -83 56 -8 348 -10 989 -8 l910 3 66 22 c102 35 172 88 335 254 131 133 154 162 173 212 21 57 21 65 21 896 0 741 -2 844 -16 892 -15 49 -32 70 -193 232 -188 190 -231 224 -328 256 -61 21 -76 21 -1025 20 -885 0 -968 -2 -1024 -18z"/>
      </g>
   </g>
</g>
</svg>